<?xml version="1.0" encoding="UTF-8"?>
<svg version="1.1" xmlns="http://www.w3.org/2000/svg" width="369" height="359">
<path d="M0 0 C0.98753265 -0.0087616 1.97506531 -0.01752319 2.99252319 -0.02655029 C21.69273694 -0.1402294 39.9174735 2.02805161 57.625 8.3125 C58.62080078 8.65684082 59.61660156 9.00118164 60.64257812 9.35595703 C86.22811188 18.41303828 107.77114813 32.9081696 127.3125 51.5625 C128.17746094 52.37460937 129.04242188 53.18671875 129.93359375 54.0234375 C157.24775626 80.35752865 173.70046678 117.40264367 179.3125 154.5625 C179.46501221 155.55709229 179.46501221 155.55709229 179.62060547 156.57177734 C185.84044696 203.63635333 172.64239064 251.73699504 144.3125 289.5625 C120.3391867 320.73479659 87.30166089 343.44518242 49.4375 354.25 C48.77959473 354.44037842 48.12168945 354.63075684 47.44384766 354.8269043 C31.74853046 359.09003653 16.51640392 360.1360828 0.3125 360.0625 C-0.7241983 360.06073761 -1.76089661 360.05897522 -2.82901001 360.05715942 C-18.62946837 359.99727399 -33.47647961 359.20295292 -48.6875 354.5625 C-49.54617676 354.31081055 -50.40485352 354.05912109 -51.28955078 353.79980469 C-76.26930059 346.31011919 -99.07470345 333.72369698 -118.6875 316.5625 C-119.5125 315.85867188 -120.3375 315.15484375 -121.1875 314.4296875 C-156.09570299 283.99409802 -177.30261819 239.04902628 -180.54248047 193.02636719 C-183.4727551 143.24129716 -167.24557921 95.93691761 -134.26025391 58.6015625 C-132.74491063 56.91349288 -131.21944007 55.23550466 -129.6875 53.5625 C-128.99269531 52.79550781 -128.29789063 52.02851562 -127.58203125 51.23828125 C-121.5985846 44.94864544 -114.60190714 39.77493074 -107.6875 34.5625 C-106.841875 33.92183594 -105.99625 33.28117187 -105.125 32.62109375 C-88.22691642 20.31860385 -68.73676177 11.27409457 -48.6875 5.5625 C-47.86813965 5.31693359 -47.0487793 5.07136719 -46.20458984 4.81835938 C-30.94352052 0.41908554 -15.76669113 0.06050091 0 0 Z M-28.33203125 39.09765625 C-32.45503169 44.48927221 -33.51583206 47.81102638 -32.6875 54.5625 C-30.56442262 58.73283056 -28.88344515 60.66727268 -24.6875 62.5625 C-24.55801927 67.2963767 -24.50135959 72.02363496 -24.51049805 76.75927734 C-24.5035449 78.36755675 -24.47710535 79.97587939 -24.43041992 81.58349609 C-24.28748109 86.77105136 -24.34226678 91.52634393 -25.6875 96.5625 C-28.95703763 99.75697433 -32.43557601 101.04167582 -36.6875 102.5625 C-51.49252199 112.75789976 -61.84621542 127.72915508 -65.6875 145.3125 C-68.58127534 163.25766528 -65.49725243 181.09769963 -55 196.1875 C-53.56789488 197.9834818 -52.12977555 199.77467536 -50.6875 201.5625 C-50.03987198 202.44300018 -49.39224396 203.32350037 -48.72499084 204.23068237 C-44.53767353 209.2537817 -41.04589977 212.05370411 -34.54778194 212.71074104 C-30.46225917 212.91421903 -26.39737836 212.88963466 -22.30859375 212.8203125 C-20.52840088 212.82197291 -18.74820838 212.8269031 -16.96803284 212.83493042 C-13.25125976 212.84062381 -9.53691241 212.81148007 -5.82055664 212.75634766 C-1.07627448 212.68812123 3.66368313 212.70024823 8.40817356 212.73767281 C12.07955976 212.7588929 15.74995341 212.74086863 19.42124748 212.71090317 C21.16937238 212.70059965 22.91760224 212.70142984 24.66571236 212.71399307 C36.04313312 212.93895984 36.04313312 212.93895984 45.80175781 207.66235352 C47.73518036 205.60636363 47.73518036 205.60636363 49.3125 203.5625 C50.50939453 202.21091797 50.50939453 202.21091797 51.73046875 200.83203125 C63.24154205 184.84866457 68.92572271 167.13673237 66.00341797 147.48388672 C62.5479958 129.51833926 52.75206499 114.62778436 38.3125 103.5625 C36.06318257 102.25648159 33.7845587 100.99973404 31.48046875 99.79296875 C30.32184326 99.18219482 29.16321777 98.5714209 27.96948242 97.94213867 C27.09267822 97.48685791 26.21587402 97.03157715 25.3125 96.5625 C25.13823793 92.00947246 25.01187962 87.45842242 24.92797852 82.90283203 C24.89297594 81.3565893 24.84535449 79.81057491 24.78442383 78.26513672 C24.22745913 63.76533309 24.22745913 63.76533309 28.76953125 58.72265625 C29.40221924 58.17488525 30.03490723 57.62711426 30.68676758 57.06274414 C32.6590612 55.49181597 32.6590612 55.49181597 33.4375 52 C33.23683312 46.48166086 31.47358471 42.93746873 27.9375 38.75 C22.60060057 34.30258381 17.73448126 34.25458737 11.06640625 34.26171875 C10.17767319 34.25743362 9.28894012 34.2531485 8.37327576 34.24873352 C6.49812673 34.24300378 4.62295548 34.24247995 2.74780273 34.24682617 C-0.11187875 34.2499855 -2.97052444 34.2265125 -5.83007812 34.20117188 C-7.6562487 34.19889859 -9.48242205 34.19819552 -11.30859375 34.19921875 C-12.15876572 34.190009 -13.00893768 34.18079926 -13.88487244 34.17131042 C-19.59070939 34.21550073 -23.989252 35.04370792 -28.33203125 39.09765625 Z M-41.6875 229.5625 C-43.71405921 234.96665789 -45.58497433 240.27775589 -47.21533203 245.79516602 C-47.56470825 246.96511108 -47.56470825 246.96511108 -47.92114258 248.15869141 C-48.68219341 250.71038266 -49.43898815 253.26331041 -50.1953125 255.81640625 C-50.72660633 257.60427528 -51.25801073 259.39211146 -51.78952026 261.17991638 C-52.89928278 264.91549535 -54.0067592 268.65174315 -55.11279297 272.38842773 C-56.52751744 277.16683989 -57.9493949 281.94309022 -59.37317085 286.71881199 C-60.47125898 290.40589486 -61.56480326 294.09431383 -62.65707016 297.78312492 C-63.17937939 299.54456909 -63.70325814 301.30554868 -64.22876358 303.06604195 C-64.96339182 305.52906478 -65.69168375 307.99387827 -66.41845703 310.45922852 C-66.742621 311.53874031 -66.742621 311.53874031 -67.07333374 312.64006042 C-68.33686289 316.95561552 -69.15507687 321.11275002 -69.6875 325.5625 C-67.3775 325.5625 -65.0675 325.5625 -62.6875 325.5625 C-57.11779708 307.6313418 -51.70491227 289.6579915 -46.39355469 271.64892578 C-45.36986812 268.17837609 -44.34222312 264.70901077 -43.31372833 261.23988342 C-42.51236824 258.53479261 -41.71345797 255.82898304 -40.91526794 253.12295532 C-40.35404246 251.2223556 -39.79038606 249.32247425 -39.22668457 247.42260742 C-38.72485657 245.71681519 -38.72485657 245.71681519 -38.21289062 243.9765625 C-37.9172522 242.9757666 -37.62161377 241.9749707 -37.3170166 240.94384766 C-36.60230873 238.65076181 -36.60230873 238.65076181 -36.6875 236.5625 C-12.5975 236.8925 11.4925 237.2225 36.3125 237.5625 C41.64251511 255.4688551 41.64251511 255.4688551 43.9375 263.18359375 C45.49500702 268.41923786 47.05266868 273.65483556 48.61132812 278.89013672 C49.8698844 283.11747536 51.12768303 287.34503879 52.38498688 291.57275009 C52.86148112 293.17450637 53.33823471 294.77618553 53.81526947 296.37778091 C56.7076768 306.08948167 59.55296116 315.81212133 62.3125 325.5625 C64.9525 325.5625 67.5925 325.5625 70.3125 325.5625 C68.0731787 316.12387907 65.37486531 306.85036001 62.56640625 297.5703125 C62.10917938 296.05166672 61.65223009 294.53293734 61.19554138 293.01412964 C60.00103884 289.04377081 58.80338982 285.07436885 57.6048584 281.10522461 C55.69034265 274.76321109 53.78052189 268.41978283 51.87101555 262.07625961 C51.21189991 259.88834072 50.55133112 257.70086502 49.89051819 255.51345825 C49.4758866 254.13805174 49.06128843 252.76263515 48.64672852 251.38720703 C48.11403099 249.62281784 48.11403099 249.62281784 47.5705719 247.82278442 C45.7766848 241.74803679 44.05260604 235.65287114 42.3125 229.5625 C14.5925 229.5625 -13.1275 229.5625 -41.6875 229.5625 Z M19.3125 246.5625 C19.07466797 247.93921875 19.07466797 247.93921875 18.83203125 249.34375 C17.57397206 255.9607243 16.4130811 261.52503917 12.3984375 267.01171875 C11.1099659 268.69488182 11.1099659 268.69488182 10.3125 271.5625 C8.72265625 272.5234375 8.72265625 272.5234375 6.3125 273.5625 C-10.03320722 281.32534423 -24.59168818 288.97845637 -31.6875 306.5625 C-32.60614895 310.14580151 -32.82267341 313.49455056 -32.8125 317.1875 C-32.81507813 318.12851562 -32.81765625 319.06953125 -32.8203125 320.0390625 C-32.79297998 322.68927507 -32.79297998 322.68927507 -31.6875 325.5625 C-24.55287067 325.74040325 -17.41881576 325.86274722 -10.2824707 325.94702148 C-7.85647203 325.98216211 -5.43062095 326.02988566 -3.00512695 326.09057617 C0.48783817 326.17577044 3.97883957 326.2152541 7.47265625 326.24609375 C9.09180687 326.30028725 9.09180687 326.30028725 10.7436676 326.35557556 C16.12828863 326.35836523 19.44056611 326.11397524 23.40795898 322.26977539 C32.43949963 311.8189788 33.08244348 299.33045331 32.5078125 286.14746094 C31.570059 273.7362933 27.47745915 256.18116108 19.3125 246.5625 Z " fill="#62B1FF" transform="translate(182.6875,-0.5625)"/>
<path d="M0 0 C1.33877953 -0.01142029 1.33877953 -0.01142029 2.7046051 -0.02307129 C4.58990688 -0.0338638 6.47526841 -0.03672884 8.3605957 -0.03222656 C11.24076315 -0.03125444 14.11826415 -0.07287936 16.99804688 -0.1171875 C18.83202571 -0.12239491 20.66601378 -0.12508269 22.5 -0.125 C23.35847031 -0.14139526 24.21694061 -0.15779053 25.10142517 -0.17468262 C29.47189662 -0.12432233 31.29369094 0.07641296 34.89477539 2.77929688 C36.81640625 5.46875 36.81640625 5.46875 36.87890625 9.09375 C35.81640625 12.46875 35.81640625 12.46875 33.94140625 14.40625 C31.81640625 15.46875 31.81640625 15.46875 28.81640625 15.46875 C28.81640625 30.31875 28.81640625 45.16875 28.81640625 60.46875 C30.79640625 60.79875 32.77640625 61.12875 34.81640625 61.46875 C46.3320218 66.75460632 56.89752073 75.08812866 62.81640625 86.46875 C62.81640625 87.12875 62.81640625 87.78875 62.81640625 88.46875 C28.82640625 88.46875 -5.16359375 88.46875 -40.18359375 88.46875 C-32.62174835 73.34505919 -21.73566241 65.68957747 -6.18359375 59.46875 C-5.85359375 44.94875 -5.52359375 30.42875 -5.18359375 15.46875 C-7.16359375 15.13875 -9.14359375 14.80875 -11.18359375 14.46875 C-13.6938861 11.63454896 -14.19689062 10.13359335 -14.12109375 6.34375 C-11.86038964 -0.58907595 -6.28313296 0.00147069 0 0 Z " fill="#62B0FF" transform="translate(171.18359375,41.53125)"/>
<path d="M0 0 C3.13836313 2.02685952 4.65870267 3.45297192 5.4765625 7.16015625 C5.74267565 11.35493981 5.33198013 13.49165543 3 17.0625 C-0.34465914 19.22259236 -2.16897764 19.67672257 -6.06640625 19.43359375 C-9.10618646 18.75194607 -10.86696044 17.19767713 -13 15 C-14.55024464 11.89951072 -14.28992015 9.42105782 -14 6 C-10.30130834 0.32867279 -6.71796532 -1.09182993 0 0 Z " fill="#62B1FF" transform="translate(199,155)"/>
<path d="M0 0 C2.0625 2.125 2.0625 2.125 3 5 C2.1875 8.3125 2.1875 8.3125 1 11 C-5.25925926 12.44444444 -5.25925926 12.44444444 -8.5 10.5 C-10 8 -10 8 -9.875 4.3125 C-9.58625 3.219375 -9.2975 2.12625 -9 1 C-5.88122044 -0.55938978 -3.42744229 -0.3607834 0 0 Z " fill="#61B1FF" transform="translate(171,168)"/>
<path d="M0 0 C1.2065625 0.0309375 1.2065625 0.0309375 2.4375 0.0625 C3.5625 2.375 3.5625 2.375 4.4375 5.0625 C3.4475 6.5475 3.4475 6.5475 2.4375 8.0625 C-0.0625 8.375 -0.0625 8.375 -2.5625 8.0625 C-3.2225 7.4025 -3.8825 6.7425 -4.5625 6.0625 C-3.83457637 0.09352625 -3.83457637 0.09352625 0 0 Z " fill="#62B0FF" transform="translate(189.5625,187.9375)"/>
<path d="M0 0 C2.125 0.375 2.125 0.375 4 1 C4.625 2.875 4.625 2.875 5 5 C4.34 5.66 3.68 6.32 3 7 C0.875 6.625 0.875 6.625 -1 6 C-1.625 4.125 -1.625 4.125 -2 2 C-1.34 1.34 -0.68 0.68 0 0 Z " fill="#5DB5FF" transform="translate(176,142)"/>
</svg>
